<svg width="20" height="20" viewBox="0 0 20 20" fill="none" xmlns="http://www.w3.org/2000/svg">
<path d="M10 0C4.47656 0 0 4.47656 0 10C0 15.5234 4.47656 20 10 20C15.5234 20 20 15.5234 20 10C20 4.47656 15.5234 0 10 0ZM15.707 7.70703L8.70703 14.707C8.51172 14.9023 8.25781 15 8 15C7.74219 15 7.48828 14.9023 7.29297 14.707L4.29297 11.707C3.90234 11.3164 3.90234 10.6836 4.29297 10.293C4.68359 9.90234 5.31641 9.90234 5.70703 10.293L8 12.5859L14.293 6.29297C14.6836 5.90234 15.3164 5.90234 15.707 6.29297C16.0977 6.68359 16.0977 7.31641 15.707 7.70703Z" fill="#76C125"/>
</svg>
