<svg width="37" height="37" viewBox="0 0 37 37" fill="none" xmlns="http://www.w3.org/2000/svg">
<circle cx="18.5" cy="18.5" r="18" transform="rotate(-180 18.5 18.5)" stroke="white"/>
<path fill-rule="evenodd" clip-rule="evenodd" d="M21.6444 24.4568C21.6008 24.5004 21.5491 24.5351 21.4922 24.5587C21.4352 24.5823 21.3742 24.5945 21.3125 24.5945C21.2509 24.5945 21.1898 24.5823 21.1329 24.5587C21.0759 24.5351 21.0242 24.5004 20.9806 24.4568L15.3556 18.8318C15.312 18.7882 15.2774 18.7365 15.2537 18.6796C15.2301 18.6226 15.2179 18.5616 15.2179 18.4999C15.2179 18.4382 15.2301 18.3772 15.2537 18.3202C15.2774 18.2633 15.312 18.2116 15.3556 18.168L20.9806 12.543C21.0687 12.455 21.188 12.4056 21.3125 12.4056C21.437 12.4056 21.5564 12.455 21.6444 12.543C21.7324 12.631 21.7819 12.7504 21.7819 12.8749C21.7819 12.9994 21.7324 13.1188 21.6444 13.2068L16.3503 18.4999L21.6444 23.793C21.688 23.8366 21.7227 23.8883 21.7463 23.9452C21.7699 24.0022 21.7821 24.0632 21.7821 24.1249C21.7821 24.1866 21.7699 24.2476 21.7463 24.3046C21.7227 24.3615 21.688 24.4132 21.6444 24.4568V24.4568Z" fill="white"/>
</svg>
