<svg width="37" height="37" viewBox="0 0 37 37" fill="none" xmlns="http://www.w3.org/2000/svg">
<circle cx="18.5" cy="18.5" r="18" stroke="white"/>
<path fill-rule="evenodd" clip-rule="evenodd" d="M15.3556 12.5432C15.3992 12.4996 15.4509 12.4649 15.5078 12.4413C15.5648 12.4177 15.6258 12.4055 15.6875 12.4055C15.7491 12.4055 15.8102 12.4177 15.8671 12.4413C15.9241 12.4649 15.9758 12.4996 16.0194 12.5432L21.6444 18.1682C21.688 18.2118 21.7226 18.2635 21.7463 18.3204C21.7699 18.3774 21.7821 18.4384 21.7821 18.5001C21.7821 18.5618 21.7699 18.6228 21.7463 18.6798C21.7226 18.7367 21.688 18.7884 21.6444 18.832L16.0194 24.457C15.9313 24.545 15.812 24.5944 15.6875 24.5944C15.563 24.5944 15.4436 24.545 15.3556 24.457C15.2676 24.369 15.2181 24.2496 15.2181 24.1251C15.2181 24.0006 15.2676 23.8812 15.3556 23.7932L20.6497 18.5001L15.3556 13.207C15.312 13.1634 15.2773 13.1117 15.2537 13.0548C15.2301 12.9978 15.2179 12.9368 15.2179 12.8751C15.2179 12.8134 15.2301 12.7524 15.2537 12.6954C15.2773 12.6385 15.312 12.5868 15.3556 12.5432Z" fill="white"/>
</svg>
