<svg width="52" height="52" viewBox="0 0 52 52" fill="none" xmlns="http://www.w3.org/2000/svg">
<path d="M19.5 24.375C28.4746 24.375 35.75 21.1011 35.75 17.0625C35.75 13.0239 28.4746 9.75 19.5 9.75C10.5254 9.75 3.25 13.0239 3.25 17.0625C3.25 21.1011 10.5254 24.375 19.5 24.375Z" stroke="#5524E0" stroke-width="2" stroke-linecap="round" stroke-linejoin="round"/>
<path d="M3.25 17.0625V25.1875C3.25 29.2297 10.5219 32.5 19.5 32.5C28.4781 32.5 35.75 29.2297 35.75 25.1875V17.0625" stroke="#5524E0" stroke-width="2" stroke-linecap="round" stroke-linejoin="round"/>
<path d="M13 23.7656V31.8906" stroke="#5524E0" stroke-width="2" stroke-linecap="round" stroke-linejoin="round"/>
<path d="M35.75 19.6421C43.1641 20.3327 48.75 23.278 48.75 26.8124C48.75 30.8546 41.4781 34.1249 32.5 34.1249C28.5187 34.1249 24.8625 33.4749 22.0391 32.4187" stroke="#5524E0" stroke-width="2" stroke-linecap="round" stroke-linejoin="round"/>
<path d="M16.25 32.3578V34.9375C16.25 38.9797 23.5219 42.25 32.5 42.25C41.4781 42.25 48.75 38.9797 48.75 34.9375V26.8125" stroke="#5524E0" stroke-width="2" stroke-linecap="round" stroke-linejoin="round"/>
<path d="M39 33.5156V41.6406" stroke="#5524E0" stroke-width="2" stroke-linecap="round" stroke-linejoin="round"/>
<path d="M26 23.7656V41.6406" stroke="#5524E0" stroke-width="2" stroke-linecap="round" stroke-linejoin="round"/>
</svg>
