<svg width="52" height="52" viewBox="0 0 52 52" fill="none" xmlns="http://www.w3.org/2000/svg">
<path d="M7.69837 42.2294L18.6265 12.1466C18.72 11.8892 18.8771 11.6596 19.0832 11.4792C19.2892 11.2987 19.5376 11.1733 19.8051 11.1145C20.0726 11.0557 20.3506 11.0655 20.6133 11.143C20.876 11.2205 21.1149 11.3631 21.3077 11.5576L40.4421 30.6919C40.6366 30.8848 40.7792 31.1236 40.8567 31.3864C40.9341 31.6491 40.9439 31.9271 40.8852 32.1946C40.8264 32.4621 40.701 32.7104 40.5205 32.9165C40.3401 33.1225 40.1105 33.2796 39.8531 33.3732L9.77024 44.3013C9.48082 44.4119 9.16557 44.4364 8.86254 44.3718C8.55952 44.3072 8.28168 44.1562 8.06259 43.9371C7.8435 43.718 7.69252 43.4402 7.62789 43.1371C7.56326 42.8341 7.58774 42.5189 7.69837 42.2294V42.2294Z" stroke="#5524E0" stroke-linecap="round" stroke-linejoin="round"/>
<path d="M34.125 14.625C34.125 14.625 34.125 9.75 39 9.75C43.875 9.75 43.875 4.875 43.875 4.875" stroke="#5524E0" stroke-linecap="round" stroke-linejoin="round"/>
<path d="M20.7999 40.3003L11.6999 31.2003" stroke="#5524E0" stroke-linecap="round" stroke-linejoin="round"/>
<path d="M29.25 3.25V8.125" stroke="#5524E0" stroke-linecap="round" stroke-linejoin="round"/>
<path d="M43.875 22.75L47.125 26" stroke="#5524E0" stroke-linecap="round" stroke-linejoin="round"/>
<path d="M43.875 16.25L48.75 14.625" stroke="#5524E0" stroke-linecap="round" stroke-linejoin="round"/>
<path d="M15.6002 20.4751L31.5252 36.4001" stroke="#5524E0" stroke-linecap="round" stroke-linejoin="round"/>
</svg>
