<svg width="24" height="24" viewBox="0 0 24 24" fill="none" xmlns="http://www.w3.org/2000/svg">
<path d="M11.9999 1.99965C10.0221 1.99965 8.08871 2.58614 6.44421 3.68495C4.79972 4.78377 3.518 6.34555 2.76112 8.17281C2.00424 10.0001 1.80621 12.0107 2.19206 13.9506C2.57792 15.8904 3.53032 17.6722 4.92885 19.0707C6.32737 20.4692 8.1092 21.4216 10.049 21.8075C11.9888 22.1934 13.9995 21.9953 15.8268 21.2384C17.654 20.4816 19.2158 19.1998 20.3146 17.5554C21.4134 15.9109 21.9999 13.9775 21.9999 11.9996C21.9999 10.6864 21.7413 9.38607 21.2387 8.17281C20.7362 6.95956 19.9996 5.85717 19.071 4.92858C18.1424 4 17.04 3.2634 15.8268 2.76085C14.6135 2.25831 13.3131 1.99965 11.9999 1.99965ZM12.9999 15.9996C12.9999 16.2649 12.8946 16.5192 12.707 16.7068C12.5195 16.8943 12.2651 16.9996 11.9999 16.9996C11.7347 16.9996 11.4803 16.8943 11.2928 16.7068C11.1053 16.5192 10.9999 16.2649 10.9999 15.9996V10.9996C10.9999 10.7344 11.1053 10.4801 11.2928 10.2925C11.4803 10.105 11.7347 9.99965 11.9999 9.99965C12.2651 9.99965 12.5195 10.105 12.707 10.2925C12.8946 10.4801 12.9999 10.7344 12.9999 10.9996V15.9996ZM11.9999 8.99965C11.8021 8.99965 11.6088 8.941 11.4443 8.83112C11.2799 8.72124 11.1517 8.56506 11.076 8.38233C11.0003 8.19961 10.9805 7.99854 11.0191 7.80456C11.0577 7.61058 11.153 7.43239 11.2928 7.29254C11.4327 7.15269 11.6108 7.05745 11.8048 7.01886C11.9988 6.98028 12.1999 7.00008 12.3826 7.07577C12.5653 7.15146 12.7215 7.27963 12.8314 7.44408C12.9413 7.60853 12.9999 7.80187 12.9999 7.99965C12.9999 8.26487 12.8946 8.51922 12.707 8.70676C12.5195 8.89429 12.2651 8.99965 11.9999 8.99965Z" fill="#FFB73E"/>
</svg>
