<svg width="52" height="52" viewBox="0 0 52 52" fill="none" xmlns="http://www.w3.org/2000/svg">
<path d="M6.80469 4.875L45.1953 47.125" stroke="#5524E0" stroke-width="2" stroke-linecap="round" stroke-linejoin="round"/>
<path d="M38.0859 39.3047C33.7188 44.3016 28.1734 46.4141 26.5078 46.9625C26.1801 47.0838 25.8199 47.0838 25.4922 46.9625C22.6078 46.0078 8.125 40.3609 8.125 23.2984V11.375C8.125 10.944 8.29621 10.5307 8.60095 10.226C8.9057 9.92121 9.31902 9.75 9.75 9.75H11.2328" stroke="#5524E0" stroke-width="2" stroke-linecap="round" stroke-linejoin="round"/>
<path d="M20.0078 9.75H42.25C42.681 9.75 43.0943 9.92121 43.399 10.226C43.7038 10.5307 43.875 10.944 43.875 11.375V23.2984C43.875 27.3812 43.0422 30.7937 41.7422 33.6578" stroke="#5524E0" stroke-width="2" stroke-linecap="round" stroke-linejoin="round"/>
</svg>
