<svg width="34" height="34" viewBox="0 0 34 34" fill="none" xmlns="http://www.w3.org/2000/svg">
<path d="M24.8767 29.7501C24.6501 29.751 24.4266 29.6976 24.225 29.5943L17 25.8118L9.775 29.5943C9.54039 29.7177 9.27588 29.7727 9.01152 29.7532C8.74717 29.7338 8.49359 29.6405 8.27961 29.4841C8.06562 29.3276 7.89981 29.1143 7.80104 28.8683C7.70226 28.6224 7.67447 28.3536 7.72083 28.0926L9.1375 20.1168L3.30083 14.4501C3.11873 14.2684 2.98955 14.0405 2.92716 13.7909C2.86476 13.5414 2.8715 13.2795 2.94667 13.0335C3.02878 12.7817 3.17982 12.558 3.38265 12.3877C3.58548 12.2174 3.83197 12.1074 4.09417 12.0701L12.1692 10.8943L15.725 3.62679C15.841 3.38728 16.0221 3.18528 16.2476 3.04394C16.4731 2.9026 16.7339 2.82764 17 2.82764C17.2661 2.82764 17.5269 2.9026 17.7524 3.04394C17.9779 3.18528 18.159 3.38728 18.275 3.62679L21.8733 10.8801L29.9483 12.056C30.2105 12.0932 30.457 12.2032 30.6599 12.3735C30.8627 12.5438 31.0137 12.7675 31.0958 13.0193C31.171 13.2653 31.1777 13.5272 31.1153 13.7768C31.0529 14.0264 30.9238 14.2542 30.7417 14.436L24.905 20.1026L26.3217 28.0785C26.3722 28.3441 26.3458 28.6186 26.2453 28.8696C26.1449 29.1206 25.9748 29.3377 25.755 29.4951C25.4985 29.6749 25.1896 29.7646 24.8767 29.7501Z" fill="#FFB73E"/>
</svg>
